<?xml version="1.0" standalone="no"?>
<!DOCTYPE svg PUBLIC "-//W3C//DTD SVG 20010904//EN"
 "http://www.w3.org/TR/2001/REC-SVG-20010904/DTD/svg10.dtd">
<svg version="1.0" xmlns="http://www.w3.org/2000/svg"
 width="512.000000pt" height="512.000000pt" viewBox="0 0 512.000000 512.000000"
 preserveAspectRatio="xMidYMid meet">
<metadata>
Created by potrace 1.11, written by Peter Selinger 2001-2013
</metadata>
<g transform="translate(0.000000,512.000000) scale(0.100000,-0.100000)"
fill="#000000" stroke="none">
<path d="M1980 5023 c-84 -29 -151 -89 -193 -173 -22 -45 -22 -49 -25 -567
l-3 -523 -838 0 c-662 0 -840 -3 -843 -12 -2 -7 -4 -834 -4 -1838 l1 -1825
2483 -3 2482 -2 0 1840 0 1840 -710 0 c-561 0 -710 3 -710 13 -1 6 -2 239 -3
517 -2 496 -2 506 -24 552 -34 74 -79 123 -146 160 l-62 33 -680 2 c-596 2
-686 0 -725 -14z m1319 -783 l-1 -480 -599 0 -599 0 0 53 c-1 73 -1 725 0 825
l0 82 600 0 599 0 0 -480z"/>
</g>
</svg>
